<svg version="1.1" id="Layer_1" xmlns="http://www.w3.org/2000/svg" xmlns:xlink="http://www.w3.org/1999/xlink" x="0px" y="0px"
	 width="100%" viewBox="0 0 1024 1024" enable-background="new 0 0 1024 1024" xml:space="preserve">
<path fill="#000000" opacity="1.000000" stroke="none" 
	d="
M402.000000,407.319458 
	C375.009827,407.712555 348.513702,407.525482 322.024109,407.643585 
	C299.544586,407.743866 277.041870,407.493958 254.550522,407.275726 
	C252.775879,407.258514 250.557388,407.789825 249.475266,405.985840 
	C248.158081,403.790039 250.251022,402.241699 251.383072,400.781403 
	C264.454834,383.919281 278.906311,368.222931 292.768402,352.027893 
	C294.838898,349.608917 297.655212,348.776337 300.841553,348.783203 
	C347.336670,348.883453 393.838867,348.499359 440.323792,349.226501 
	C459.913208,349.532898 479.404358,352.833496 499.037933,353.753174 
	C511.311615,354.328156 523.263367,352.158752 535.315796,350.827545 
	C540.630798,350.240509 545.909302,349.828247 551.247864,349.822144 
	C603.037598,349.763062 654.818542,348.341370 706.612000,348.802429 
	C713.277649,348.861786 719.943665,348.882629 726.609558,348.898010 
	C729.566589,348.904816 732.291443,349.570892 734.234497,351.946259 
	C747.841736,368.580505 762.662781,384.191803 775.769043,401.245209 
	C776.833618,402.630402 778.421387,403.863922 777.867493,407.318756 
	C652.856323,407.318756 527.678162,407.318756 402.000000,407.319458 
M515.772522,363.672577 
	C510.648987,362.570984 505.534882,362.859283 500.388184,363.601471 
	C489.564240,365.162354 478.894867,368.062469 467.719147,366.394653 
	C464.532959,365.919159 460.895844,366.836731 458.660431,370.018585 
	C460.273682,372.601654 462.633423,371.951263 464.679138,372.074707 
	C468.484924,372.304352 472.313690,371.725433 476.103180,372.739441 
	C486.293427,375.466339 496.630432,376.785980 507.209778,375.898499 
	C514.990417,375.245819 522.770996,374.540253 530.589722,375.788177 
	C533.022583,376.176422 535.594238,375.970184 537.993286,375.103271 
	C539.672363,374.496460 541.923645,374.257629 542.147644,372.071289 
	C542.387329,369.731323 540.071228,369.403320 538.493408,368.599731 
	C531.628967,365.103485 523.992554,365.150482 515.772522,363.672577 
z"/>
<path fill="#000000" opacity="1.000000" stroke="none" 
	d="
M622.356873,519.318481 
	C621.979065,528.253845 619.800903,536.567993 620.173706,545.124634 
	C620.326416,548.628967 620.553101,552.009705 624.311218,553.427551 
	C628.179749,554.887146 631.153137,552.833191 633.493835,550.018982 
	C637.341980,545.392334 640.502625,540.311157 642.958313,534.785522 
	C644.068726,532.286926 643.738831,530.011047 642.899170,527.540833 
	C641.453491,523.288086 640.137817,518.913513 640.306030,514.393921 
	C640.742920,502.651672 647.952026,494.482117 659.608215,492.142944 
	C674.319336,489.190704 692.938171,496.838196 701.342712,509.285004 
	C707.004517,517.669922 704.149902,527.763855 695.659424,529.380859 
	C689.418335,530.569458 684.310608,526.313538 684.813049,520.035034 
	C685.238403,514.720581 683.766235,510.572998 679.054443,507.721832 
	C675.110046,505.335022 671.073547,503.909729 666.962891,506.956757 
	C662.707520,510.111084 662.417847,514.536560 664.157837,519.112976 
	C666.493103,525.255188 670.463806,530.442444 674.493774,535.536072 
	C680.996582,543.755188 687.733337,551.693298 692.511597,561.235413 
	C702.580200,581.342102 692.590393,602.962585 674.599854,611.267029 
	C654.419189,620.582397 627.756409,615.917358 611.912903,600.297119 
	C608.397827,596.831604 605.896484,592.748047 605.880798,587.542358 
	C605.867065,582.984619 608.542542,579.499573 612.847534,578.443359 
	C617.181824,577.380066 618.647705,580.334229 620.290100,583.411621 
	C627.546936,597.008179 645.431091,602.687805 659.125183,595.838440 
	C667.945923,591.426575 672.325928,581.407104 670.001770,571.285767 
	C668.735535,565.771729 665.760193,561.157959 662.543945,556.702087 
	C658.778809,551.485657 654.752991,546.457458 650.669128,541.124146 
	C647.916382,543.325928 647.285461,546.007263 646.065491,548.289246 
	C642.586609,554.796509 638.801025,561.063782 632.491577,565.284912 
	C621.257324,572.800903 607.312561,569.381775 600.748962,557.592651 
	C600.044250,556.326843 599.922485,554.650574 598.012756,553.727417 
	C582.350708,566.589722 567.571716,565.035828 553.803894,549.772949 
	C550.432983,551.819702 547.782227,554.835754 544.223450,556.663391 
	C530.371216,563.777161 516.476379,555.982178 514.646423,540.424988 
	C513.543274,531.046753 515.115784,521.818726 514.885315,512.517212 
	C514.749512,507.032562 515.082520,501.532013 514.829651,496.055939 
	C514.651062,492.190033 513.032715,488.837128 508.888580,487.695221 
	C504.696625,486.540131 502.005768,488.976562 499.525024,491.932770 
	C496.204926,495.889160 494.312866,500.541626 493.449799,505.469116 
	C490.908325,519.979431 490.330261,534.564453 492.547150,549.206177 
	C493.767487,557.265869 491.347992,560.077942 483.374481,560.312012 
	C474.292328,560.578613 471.765533,558.617981 469.553375,549.681885 
	C469.321136,548.743713 468.815399,547.873352 468.440826,546.981750 
	C465.922028,546.850159 465.394806,548.929871 464.303131,550.249939 
	C456.447388,559.749390 447.002350,566.684326 434.697357,569.379639 
	C426.072266,571.268860 418.584686,569.073547 411.678406,563.970825 
	C406.798157,560.365112 406.721893,560.363159 404.417542,565.768005 
	C401.185638,573.348328 396.592102,579.611389 388.923340,583.333679 
	C379.754974,587.783875 372.762024,585.879578 367.824127,577.011658 
	C363.935669,570.028381 363.047943,562.186279 361.939178,554.432251 
	C361.091064,548.500916 360.280121,542.559937 359.214386,536.666321 
	C358.806335,534.409729 358.014221,532.120178 356.911316,530.112549 
	C354.450500,525.632935 350.947205,525.118164 347.092407,528.431152 
	C341.527802,533.213562 340.509247,539.806763 340.174957,546.548645 
	C339.499359,560.172607 341.948608,573.389587 345.751068,586.402466 
	C345.891083,586.881775 346.078705,587.346924 346.227203,587.823975 
	C349.882965,599.568787 347.714813,603.318054 335.734985,606.176392 
	C332.479004,606.953247 329.503418,606.856934 327.068115,603.713196 
	C319.180969,616.438416 312.140747,630.135315 293.139191,620.953674 
	C290.738800,627.208557 287.842468,633.318604 283.509918,638.653503 
	C280.717773,642.091736 277.442932,644.831604 273.567566,646.860718 
	C266.689331,650.462280 259.513428,652.270264 253.014755,646.632568 
	C246.580872,641.051086 243.771423,633.679932 245.563766,625.076477 
	C247.772919,614.472290 253.604279,605.763733 260.646027,597.849731 
	C265.402802,592.503723 270.660156,587.606262 275.522034,582.349548 
	C279.407501,578.148499 279.444916,573.486938 275.963715,570.031799 
	C272.897095,566.988098 266.219421,567.368286 262.860596,571.138367 
	C259.610992,574.785828 257.273804,579.005554 257.101471,584.106628 
	C256.978882,587.735107 255.973480,591.060181 253.164093,593.509705 
	C250.361862,595.952942 247.069595,597.243286 243.499268,595.461304 
	C239.758072,593.593811 239.361252,590.094788 240.013306,586.408936 
	C241.559464,577.668823 246.278687,570.638123 252.518097,564.676147 
	C259.422791,558.078369 266.896576,552.217468 276.775269,550.649353 
	C285.217896,549.309204 291.766602,552.267151 296.235382,559.645325 
	C300.828979,567.229553 301.554504,576.043030 303.866821,584.352600 
	C305.204590,589.160095 306.334717,594.057129 308.111115,598.702454 
	C310.057434,603.792236 313.562531,604.047668 317.050659,599.766235 
	C322.226196,593.413635 322.709717,585.924805 321.516083,578.399536 
	C319.406006,565.096802 317.312927,551.714478 312.441406,539.078857 
	C310.022064,532.803711 311.102173,528.137939 316.384399,524.233887 
	C318.121033,522.950317 319.715332,521.439392 321.558868,520.341797 
	C326.883179,517.171875 329.036163,517.939514 331.506683,523.607178 
	C332.027710,524.802490 332.339020,526.148865 333.592926,526.921753 
	C335.748108,526.269348 335.950989,524.202148 336.773285,522.668701 
	C340.640594,515.456787 345.653168,509.424133 353.221832,505.804260 
	C362.462921,501.384521 370.725220,504.002563 375.430603,513.210510 
	C379.685303,521.536377 380.504059,530.734680 381.524841,539.824463 
	C382.212433,545.947021 382.433502,552.139587 384.477997,558.018921 
	C385.451904,560.819641 386.298950,564.159546 389.864807,564.561523 
	C393.517426,564.973267 395.573975,562.282349 397.138031,559.406189 
	C399.715973,554.665588 400.965424,550.147705 399.483582,544.273743 
	C395.138214,527.048279 395.969727,510.265320 407.010803,495.170227 
	C416.185455,482.626892 431.674957,476.182953 444.476685,479.826416 
	C451.312531,481.771942 456.067291,487.884521 456.219025,494.921997 
	C456.355560,501.254425 452.573242,506.526306 446.479553,508.497253 
	C441.074829,510.245300 438.093842,508.211639 437.864777,502.547363 
	C437.709564,498.709839 438.140289,494.322662 433.183929,493.288147 
	C428.288574,492.266388 424.673279,495.003967 422.669769,499.206665 
	C415.396118,514.464111 416.182068,529.602905 424.710693,544.063721 
	C428.440033,550.387146 435.353973,552.345825 442.719299,550.102234 
	C456.182159,546.001282 462.865021,535.543030 467.337769,523.192871 
	C469.045929,518.476257 469.676178,513.586853 469.735687,508.501678 
	C469.940277,491.014954 470.458252,473.531616 470.902161,456.048126 
	C471.101562,448.195496 470.460968,440.409851 469.059204,432.698792 
	C468.505249,429.651428 469.393280,427.551453 471.987518,425.946411 
	C474.714233,424.259369 477.630981,423.085968 480.724243,422.338654 
	C489.341248,420.256989 494.357452,423.808472 494.065643,432.616669 
	C493.569824,447.584778 492.507233,462.534302 491.657623,477.490204 
	C491.574677,478.950195 490.955383,480.415497 491.886414,481.939117 
	C494.083252,481.950623 494.820404,480.030334 495.918121,478.727966 
	C499.104279,474.947723 502.968811,472.135010 507.529236,470.298706 
	C519.575867,465.447968 530.470886,470.459137 534.797363,482.664429 
	C537.601257,490.574341 537.359741,498.741150 537.017090,506.893616 
	C536.772827,512.705139 536.157227,518.506897 535.537964,524.294861 
	C535.124023,528.164062 535.275940,531.970825 536.321777,535.688843 
	C537.087891,538.412109 537.951477,541.421631 541.423157,541.734680 
	C544.845093,542.043396 547.529724,540.402405 549.403381,537.537048 
	C549.853577,536.848450 550.323547,536.064392 550.431152,535.276062 
	C552.973145,516.653687 566.179565,510.893127 582.374695,508.658417 
	C586.988342,508.021790 591.575195,507.193207 596.179871,506.488831 
	C599.502441,505.980530 600.985474,504.279053 600.924072,500.736145 
	C600.806824,493.975647 597.120117,488.673950 590.838501,486.931152 
	C585.232239,485.375732 581.195129,487.459045 577.519287,493.804535 
	C574.129395,499.656342 571.088440,500.854309 566.429504,498.173462 
	C560.661682,494.854492 559.054077,489.729126 562.177734,484.252197 
	C566.033813,477.491119 572.646912,475.097229 579.711487,474.153870 
	C589.506165,472.845947 599.100952,474.365417 607.796082,479.116425 
	C619.860413,485.708405 625.285767,499.438904 622.942749,515.913879 
	C622.802185,516.902405 622.582275,517.879700 622.356873,519.318481 
M579.257080,523.691162 
	C578.247314,524.781616 577.048828,525.751404 576.261536,526.983948 
	C573.353394,531.536438 573.319336,536.461060 575.462280,541.197937 
	C577.180542,544.995850 580.720825,546.911865 584.806580,546.566040 
	C590.218506,546.107910 595.018005,543.559814 596.993225,538.401489 
	C599.407776,532.095825 600.105591,525.320740 599.530151,518.092773 
	C592.247253,518.106689 585.826538,519.777283 579.257080,523.691162 
M272.104584,628.077637 
	C275.309082,628.830872 277.501343,627.116638 279.524567,625.017456 
	C288.460358,615.746033 289.386139,601.939697 281.541656,590.539246 
	C274.962921,597.688904 268.514832,604.755493 265.845642,614.319092 
	C264.320923,619.781921 266.587189,624.906372 272.104584,628.077637 
z"/>
<path fill="#000000" opacity="1.000000" stroke="none" 
	d="
M619.000000,297.743103 
	C661.826904,297.742340 704.153748,297.738373 746.480652,297.745209 
	C754.129333,297.746429 754.228333,297.865631 754.241394,305.642456 
	C754.244507,307.475494 754.087097,309.321320 754.250061,311.139130 
	C754.714172,316.314270 753.604126,320.381561 748.621948,323.339996 
	C744.085144,326.033997 741.971863,330.912720 741.749573,336.079559 
	C741.534546,341.075806 738.802185,341.449860 734.849609,341.441132 
	C682.024597,341.324219 629.199280,341.266815 576.374084,341.270325 
	C482.555359,341.276611 388.736633,341.334991 294.917908,341.370300 
	C287.039734,341.373260 287.033478,341.370117 285.367828,334.007812 
	C284.207062,328.877106 281.459198,324.810791 276.972626,322.092224 
	C273.927887,320.247345 272.610840,317.781525 272.776978,314.238617 
	C272.956299,310.413818 272.885376,306.574432 272.834106,302.742584 
	C272.786072,299.150818 274.492035,297.544586 278.052887,297.740295 
	C279.547913,297.822449 281.051605,297.743042 282.551361,297.743042 
	C394.534241,297.742828 506.517120,297.743256 619.000000,297.743103 
M681.500000,313.116119 
	C551.139526,313.116119 420.778992,313.116119 289.477661,313.116119 
	C291.844269,316.271637 294.187073,318.260223 295.032379,320.755951 
	C296.863556,326.162354 300.515869,326.719299 305.483307,326.715332 
	C427.109497,326.618500 548.735840,326.659943 670.362122,326.672699 
	C688.189514,326.674561 706.017029,326.673462 723.844299,326.624023 
	C725.778870,326.618652 728.123901,327.317322 729.458557,325.406311 
	C732.070129,321.667145 734.405701,317.735260 737.344055,313.114990 
	C718.424194,313.114990 700.462097,313.114990 681.500000,313.116119 
z"/>
<path fill="#000000" opacity="1.000000" stroke="none" 
	d="
M551.631042,630.000244 
	C551.631348,620.834839 551.517029,612.167297 551.680481,603.505066 
	C551.766418,598.949707 550.325500,596.975952 545.330200,597.034180 
	C524.669250,597.275085 504.003815,597.128784 483.340057,597.145203 
	C477.122406,597.150146 476.899536,597.348572 476.903534,603.635315 
	C476.926941,640.463440 476.984344,677.291504 477.016693,714.119629 
	C477.023743,722.118225 476.990448,722.127136 468.899719,722.129456 
	C400.409302,722.149353 331.918884,722.171509 263.428467,722.184570 
	C255.151764,722.186157 252.540115,718.528564 255.024033,710.510498 
	C255.834076,707.895630 257.712524,706.840759 260.315186,706.833008 
	C264.814423,706.819519 269.327911,706.595581 273.808990,706.878418 
	C278.221710,707.156921 280.062256,705.856262 279.931244,701.045532 
	C279.641022,690.389771 280.165771,679.711487 279.860138,669.056702 
	C279.710541,663.840820 280.910400,659.973511 285.807007,657.595703 
	C288.579224,656.249512 290.475769,653.351990 293.690948,652.809875 
	C295.866974,654.382141 295.209015,656.553162 295.215302,658.443604 
	C295.263123,672.774719 295.353058,687.107849 295.141907,701.436157 
	C295.080597,705.597046 296.447052,706.877014 300.595093,706.868164 
	C352.420929,706.757751 404.247223,706.747986 456.072906,706.896118 
	C460.788116,706.909546 462.035370,705.231750 462.020691,700.798462 
	C461.921844,670.969910 461.985535,641.140442 462.087646,611.311584 
	C462.114410,603.486267 462.564087,595.662598 462.617065,587.836853 
	C462.640930,584.308899 464.262238,582.587463 467.591797,582.243164 
	C469.245331,582.072205 470.913940,581.971130 472.575928,581.968445 
	C500.905212,581.922852 529.234558,581.883606 557.563843,581.877197 
	C565.395203,581.875427 566.143188,582.615234 566.163696,590.424072 
	C566.249451,623.085815 566.322937,655.747681 566.336670,688.409485 
	C566.338684,693.229126 567.350647,698.024109 566.490173,702.871338 
	C566.067261,705.253845 567.171509,706.723145 569.784424,706.720215 
	C571.117310,706.718750 572.450134,706.772949 573.783020,706.773254 
	C630.275146,706.786621 686.767212,706.799011 743.259338,706.803955 
	C749.804260,706.804565 749.793457,706.784241 749.793884,700.068848 
	C749.794983,682.238159 749.795898,664.407410 749.831299,646.576782 
	C749.834534,644.967285 749.360840,643.228210 750.632263,641.825317 
	C760.197083,642.759460 764.967712,647.795349 764.997192,657.022095 
	C765.042419,671.186646 765.050842,685.351379 765.090332,699.515991 
	C765.110535,706.754089 765.125854,706.755310 772.124084,706.782654 
	C775.956848,706.797668 779.790466,706.761169 783.622192,706.830200 
	C789.333557,706.933105 790.166626,707.979797 790.178162,714.807861 
	C790.188965,721.221130 789.470703,722.156799 783.670166,722.168823 
	C757.007324,722.224060 730.344360,722.214355 703.681396,722.212463 
	C655.854736,722.209106 608.028076,722.199036 560.201416,722.180359 
	C551.682922,722.177063 551.666687,722.149353 551.661682,713.485046 
	C551.645630,685.823425 551.640869,658.161865 551.631042,630.000244 
z"/>
<path fill="#000000" opacity="1.000000" stroke="none" 
	d="
M171.032684,636.794800 
	C163.710999,612.845703 156.391602,589.305115 146.774445,566.585205 
	C144.082657,560.226013 144.633209,554.722107 148.181122,549.086975 
	C150.978989,544.643066 154.467056,540.856506 158.701263,537.845703 
	C163.985703,534.088013 167.287979,535.202576 169.121597,541.392822 
	C173.518173,556.235596 177.620819,571.166260 182.103592,585.982300 
	C184.104309,592.594971 186.157455,599.253113 189.506912,605.652710 
	C190.564041,605.126404 191.263779,604.973389 191.676727,604.544373 
	C209.789810,585.727661 220.535797,564.160217 215.433701,537.289246 
	C213.700348,528.160156 211.028076,518.987610 203.109406,512.821411 
	C192.383865,504.469543 180.718613,505.696136 168.995209,510.125244 
	C154.678314,515.534180 144.614334,526.345764 135.933243,538.226379 
	C126.063492,551.733643 119.067627,566.628296 120.201614,584.067139 
	C121.195213,599.346924 127.000351,611.736206 142.063599,614.844421 
	C146.495117,615.758850 147.666382,618.772705 146.113907,623.208252 
	C141.857422,635.369263 125.051201,640.184937 113.910896,632.040344 
	C104.755478,625.346863 100.403748,615.762573 99.028000,604.764587 
	C96.465942,584.283142 101.812126,565.369019 111.376526,547.570312 
	C124.355507,523.417175 143.071320,504.885406 167.734299,492.690460 
	C177.336777,487.942444 187.547684,484.428253 198.309616,484.084595 
	C212.660492,483.626343 232.060043,492.398163 239.327560,512.860779 
	C246.838867,534.009888 242.598572,554.021973 233.959015,573.455444 
	C225.993973,591.371765 213.622421,606.188232 198.573166,618.690430 
	C195.839615,620.961365 195.174805,622.906494 196.302322,626.333008 
	C202.250793,644.410278 209.717865,661.842651 218.250626,678.819336 
	C220.094543,682.487976 220.119736,685.571838 218.221832,689.164368 
	C215.217438,694.851257 211.743103,700.089905 206.238052,703.588013 
	C199.808319,707.673767 196.383148,706.712646 193.233627,699.786316 
	C187.158539,686.426086 182.900955,672.379089 178.069366,658.553528 
	C175.599014,651.484741 173.453598,644.302307 171.032684,636.794800 
z"/>
<path fill="#000000" opacity="1.000000" stroke="none" 
	d="
M659.968994,443.819580 
	C652.588562,454.712311 642.651550,459.814148 629.882202,458.212616 
	C617.195862,456.621460 609.451111,448.151978 603.589905,436.710052 
	C595.989441,448.582153 588.092346,458.610809 573.223389,458.264923 
	C558.825195,457.930023 549.487061,450.028046 543.526306,437.222687 
	C540.301758,438.982452 539.181519,441.668915 537.895569,444.050842 
	C532.521118,454.005371 523.768555,458.264221 512.970703,458.928192 
	C507.070862,459.290985 505.418610,457.511627 505.669464,451.737183 
	C505.958466,445.085266 506.443359,438.441620 506.707703,431.789001 
	C506.874451,427.593018 506.448425,423.497711 504.102570,419.777679 
	C502.034363,416.498016 503.786133,415.150970 506.970398,415.043915 
	C512.130981,414.870270 517.297302,414.802582 522.461182,414.802429 
	C607.096252,414.799530 691.731323,414.813690 776.366394,414.825745 
	C784.474426,414.826904 785.191223,415.528534 785.148865,423.685699 
	C785.104858,432.152283 783.898621,440.238373 778.256897,447.125122 
	C764.593750,463.803345 740.613342,462.362885 728.544373,444.097137 
	C727.290527,442.199493 726.726379,439.742798 723.742981,438.240234 
	C717.416199,450.064056 708.502380,458.767975 693.984985,458.314728 
	C679.760559,457.870636 670.070312,450.406067 664.825806,437.389587 
	C661.135193,438.467285 661.612732,441.655975 659.968994,443.819580 
z"/>
<path fill="#000000" opacity="1.000000" stroke="none" 
	d="
M266.976807,458.374207 
	C245.515640,452.503754 240.900742,437.431946 241.992859,419.796722 
	C242.254196,415.576660 245.003906,414.773376 248.569351,414.783264 
	C264.389191,414.827148 280.209198,414.801483 296.029144,414.798096 
	C335.828827,414.789581 375.628571,414.825928 415.428101,414.737854 
	C425.566071,414.715424 435.652618,414.655426 445.426300,417.969666 
	C448.901978,419.148285 452.259857,418.798462 455.411713,416.611389 
	C456.799042,415.648712 458.505188,415.426514 459.923737,416.524750 
	C460.418945,417.548431 460.254578,418.362579 459.709076,419.037445 
	C455.287689,424.507324 455.490997,430.794128 456.735138,437.127289 
	C457.703461,442.056122 458.303619,446.957520 458.134125,451.990021 
	C457.989563,456.282867 456.226959,458.363373 451.712799,458.250153 
	C440.181366,457.960907 432.360291,452.132385 427.073975,442.292633 
	C426.368073,440.978699 425.671631,439.655182 424.872040,438.398987 
	C424.643463,438.039856 424.067505,437.901825 423.093567,437.342255 
	C417.319641,449.901031 408.142944,458.202606 393.790955,458.317139 
	C379.616425,458.430298 369.820312,450.950989 363.291565,437.490784 
	C356.143860,450.235687 347.312592,459.110260 332.695129,458.579224 
	C318.468384,458.062408 309.276031,449.718719 302.546478,436.620728 
	C295.226196,452.454498 284.361694,460.703552 266.976807,458.374207 
z"/>
<path fill="#000000" opacity="1.000000" stroke="none" 
	d="
M729.979492,556.868896 
	C737.546875,557.699219 744.673706,558.359802 751.749756,559.374329 
	C759.205078,560.443298 760.142029,559.714905 759.785339,551.989258 
	C759.429504,544.280640 754.942505,538.662354 748.260071,536.925842 
	C744.082520,535.840332 741.179382,537.218201 738.675171,540.394714 
	C734.153625,546.129883 730.053223,546.606506 724.873047,542.100952 
	C719.917786,537.791016 719.485779,530.563232 723.949341,526.122620 
	C726.678101,523.407837 730.172668,522.242126 733.845154,521.789185 
	C749.964111,519.800964 775.592712,532.311279 780.499451,552.241638 
	C782.363708,559.814087 781.935181,567.077942 779.827637,574.379150 
	C777.288818,583.174316 774.580566,591.920410 772.014893,600.708008 
	C770.978149,604.258850 770.701050,607.930847 771.187195,611.591431 
	C771.848267,616.569519 775.405029,618.880554 780.141052,617.278625 
	C785.616943,615.426392 789.638916,611.808838 791.710571,606.328369 
	C797.381226,591.326843 801.971252,576.064453 802.982178,559.914490 
	C803.288696,555.018127 805.591370,553.173950 810.265930,554.620911 
	C820.600342,557.819824 824.566467,562.964172 822.987549,573.379761 
	C822.671753,575.463074 822.148987,577.514954 821.579346,580.269714 
	C824.413208,578.112854 826.556458,576.305481 828.870972,574.753418 
	C835.579102,570.255127 845.101074,571.157471 851.018860,576.743469 
	C857.167908,582.547852 858.540100,591.474731 854.452759,598.683594 
	C852.439026,602.235291 849.440674,604.023987 845.401428,603.596191 
	C841.434082,603.175903 839.383606,600.788025 838.517578,596.827576 
	C837.826782,593.668701 837.038452,590.126099 833.021545,589.218323 
	C828.764893,588.256287 826.470581,590.892700 823.809631,593.709351 
	C816.239624,601.722290 813.933105,611.974060 810.882385,621.968750 
	C808.446411,629.949402 807.143372,638.162659 805.590454,646.331970 
	C804.589294,651.598877 803.020325,652.308594 797.992676,650.273865 
	C788.184326,646.304077 784.059814,640.402771 783.948669,630.179199 
	C765.105164,634.853088 755.254944,629.027405 748.020813,608.726562 
	C747.277527,608.891663 746.460876,608.961731 745.731323,609.251404 
	C728.057983,616.269592 707.925476,605.547913 704.141296,587.083679 
	C700.459045,569.116821 710.702087,556.914551 729.979492,556.868896 
M751.519287,588.908325 
	C752.803955,584.968079 754.165710,581.050903 755.350159,577.080811 
	C756.387512,573.603638 755.729370,571.149902 751.348450,571.220276 
	C747.043213,571.289429 742.715820,570.969727 738.434265,571.295471 
	C731.496155,571.823425 727.451782,576.084961 726.993713,582.786194 
	C726.508606,589.883179 729.759460,595.215149 735.544861,596.811401 
	C741.778809,598.531372 748.382385,595.508301 751.519287,588.908325 
z"/>
<path fill="#000000" opacity="1.000000" stroke="none" 
	d="
M856.680420,633.213867 
	C867.274231,634.675903 876.703064,638.475281 886.129395,642.261169 
	C891.228149,644.309021 892.510803,643.701904 893.770752,638.372620 
	C896.035400,628.793457 891.373840,619.731140 883.023193,617.596924 
	C880.173218,616.868591 877.176270,616.688354 875.175903,619.244507 
	C872.027771,623.267334 868.628601,624.741943 864.069397,621.564148 
	C859.148438,618.134155 856.915466,612.147827 858.795898,607.224304 
	C860.438782,602.922791 865.563538,599.712341 871.378052,599.914246 
	C881.837402,600.277344 890.685120,604.876709 898.392944,611.535217 
	C915.105164,625.971985 918.892761,643.491821 909.756775,663.588684 
	C906.244446,671.314880 902.256042,678.824341 898.496582,686.438538 
	C896.456299,690.570862 895.811707,694.942078 896.014526,699.534790 
	C896.187378,703.450623 898.302368,705.697083 901.908203,705.478943 
	C906.039490,705.229004 908.087952,706.802368 907.938660,710.665161 
	C907.781982,714.721802 905.614197,717.536621 901.326721,718.228760 
	C887.195007,720.510010 874.292358,709.796326 873.768250,695.397766 
	C873.703674,693.623474 874.296997,691.723633 872.821228,689.787842 
	C870.039612,690.198120 867.104980,691.009827 864.174072,690.996704 
	C852.456055,690.944031 843.838928,684.935669 837.719910,675.563782 
	C831.334290,665.783508 829.507996,655.289307 835.541443,644.394531 
	C840.081482,636.196350 847.173279,632.892700 856.680420,633.213867 
M864.641602,677.063293 
	C873.029724,678.839294 876.060486,677.432373 879.987061,669.946045 
	C881.760803,666.564270 883.396118,663.098877 885.358459,659.830017 
	C887.253967,656.672424 886.290405,654.923767 883.089600,653.850037 
	C878.676453,652.369690 874.210205,650.868652 869.558655,650.727356 
	C866.322449,650.629089 862.843079,650.674744 860.105225,653.027893 
	C852.285889,659.748657 854.341675,672.672791 864.641602,677.063293 
z"/>
<path fill="#000000" opacity="1.000000" stroke="none" 
	d="
M715.828125,639.010254 
	C715.844971,635.180969 715.798828,631.847229 715.897766,628.517761 
	C715.988098,625.478516 717.417908,624.393250 720.492493,625.350769 
	C727.446045,627.516357 729.116272,629.504822 729.155212,636.710571 
	C729.226318,649.872009 729.062195,663.036255 729.286377,676.194397 
	C729.365723,680.852600 727.468689,682.281677 723.064331,682.272278 
	C678.745422,682.177917 634.426147,682.169800 590.107178,682.237549 
	C585.443970,682.244690 583.599121,680.465210 583.579773,675.724426 
	C583.466003,647.907593 583.116516,620.091736 582.972839,592.274902 
	C582.958801,589.548096 581.717590,585.463196 585.840210,584.855042 
	C589.855652,584.262634 590.221191,588.272644 591.658752,591.095154 
	C599.658875,606.803040 596.491638,623.657776 597.019897,640.117859 
	C597.260193,647.606934 597.199219,655.116577 596.956055,662.606506 
	C596.802124,667.349792 598.616760,668.976196 603.385620,668.948486 
	C635.374329,668.762268 667.364319,668.802917 699.353943,668.771362 
	C702.852783,668.767944 706.373413,668.528259 709.845093,668.835754 
	C714.343689,669.234314 716.152100,667.751282 715.943481,662.996704 
	C715.600403,655.180420 715.836426,647.338684 715.828125,639.010254 
z"/>
<path fill="#000000" opacity="1.000000" stroke="none" 
	d="
M390.000000,668.815613 
	C402.158356,668.802795 413.820648,668.608459 425.473114,668.864319 
	C430.251038,668.969238 431.852417,667.388489 431.808807,662.571838 
	C431.603851,639.923096 431.688690,617.271667 431.704590,594.621155 
	C431.708954,588.387695 435.316284,585.296387 441.491882,585.964844 
	C443.605103,586.193665 444.354797,587.592957 444.571930,589.304749 
	C444.905914,591.937988 445.143768,594.603577 445.145325,597.255676 
	C445.160461,623.070312 445.126678,648.884888 445.085419,674.699524 
	C445.075195,681.087463 444.208374,682.129822 437.997101,682.138794 
	C399.358185,682.194519 360.719147,682.141113 322.080292,682.207886 
	C317.471954,682.215820 315.750000,680.429443 315.510101,675.688965 
	C314.962158,664.862915 314.907806,654.072876 315.624023,643.262817 
	C315.915955,638.856445 322.147369,632.657532 326.488129,632.758606 
	C329.544952,632.829773 329.144348,635.263000 329.162079,637.157471 
	C329.240143,645.484131 329.179321,653.812073 329.236359,662.139038 
	C329.281342,668.705688 329.384766,668.781616 336.038208,668.788330 
	C353.858795,668.806396 371.679413,668.807495 390.000000,668.815613 
z"/>
<path fill="#000000" opacity="1.000000" stroke="none" 
	d="
M279.961060,488.000946 
	C279.967133,483.178589 280.194611,478.841614 279.916290,474.537323 
	C279.621216,469.974335 281.459137,467.509033 285.811218,466.140289 
	C295.323883,463.148621 295.297028,460.804932 295.287323,472.771790 
	C295.271912,491.724762 295.306671,510.678192 295.154388,529.630127 
	C295.133148,532.271240 296.409058,536.316223 291.779602,536.554382 
	C284.657013,536.920715 280.088776,533.842163 280.045593,528.900330 
	C279.927856,515.434509 279.976990,501.967346 279.961060,488.000946 
z"/>
<path fill="#000000" opacity="1.000000" stroke="none" 
	d="
M765.088623,481.017822 
	C765.070496,489.825867 765.178284,498.139740 764.987610,506.446808 
	C764.861877,511.922089 763.653870,512.620239 758.612122,510.888916 
	C749.931641,507.908081 749.858643,507.828766 749.843018,498.500885 
	C749.828857,490.023407 749.934387,481.544922 749.829224,473.068848 
	C749.783325,469.367584 751.002686,467.739532 755.028015,467.717987 
	C765.054443,467.664429 765.053528,467.486450 765.081177,477.528748 
	C765.083923,478.526093 765.085571,479.523468 765.088623,481.017822 
z"/>
<path fill="#000000" opacity="1.000000" stroke="none" 
	d="
M537.411621,663.677856 
	C531.438843,663.728333 527.594299,660.277588 528.098206,655.587708 
	C528.488403,651.956604 530.425232,649.334717 534.026001,648.323975 
	C537.164001,647.443115 539.600220,648.955261 541.419067,651.316833 
	C543.537354,654.067322 543.818909,657.099304 541.950806,660.174927 
	C540.964600,661.798584 539.628723,662.991516 537.411621,663.677856 
z"/>
</svg>